HIERARCHY
ROOT pelvis
{
  OFFSET 0 100 0
  CHANNELS 6 Xposition Yposition Zposition Zrotation Xrotation Yrotation
  JOINT pelvis_right_femur
  {
    OFFSET -10.78128 -3.44521 -0.5502486
    CHANNELS 3 Zrotation Xrotation Yrotation
    JOINT right_femur_tibia
    {
      OFFSET -0.8047443 -44.0398 -0.1307829
      CHANNELS 3 Zrotation Xrotation Yrotation
      JOINT right_tibia_foot
      {
        OFFSET 3.006224 -47.83518 -5
        CHANNELS 3 Zrotation Xrotation Yrotation
        End Site
        {
          OFFSET 0 -5 15
        }
      }
    }
  }
  JOINT pelvis_left_femur
  {
    OFFSET 10.78128 -3.44521 -0.5502486
    CHANNELS 3 Zrotation Xrotation Yrotation
    JOINT left_femur_tibia
    {
      OFFSET 0.8047443 -44.0398 -0.1307829
      CHANNELS 3 Zrotation Xrotation Yrotation
      JOINT left_tibia_foot
      {
        OFFSET -4.370144 -48.10324 -4.275266
        CHANNELS 3 Zrotation Xrotation Yrotation
        End Site
        {
          OFFSET 0 -5 15
        }
      }
    }
  }
  JOINT pelvis_spine1
  {
    OFFSET 0 6.468898 -3.129235
    CHANNELS 3 Zrotation Xrotation Yrotation
    JOINT spine1
    {
      OFFSET 0 23.15396 4.99043
      CHANNELS 3 Zrotation Xrotation Yrotation
      JOINT spine2
      {
        OFFSET 0 20.79997 -5.064912
        CHANNELS 3 Zrotation Xrotation Yrotation
        JOINT neck
        {
          OFFSET 0 14.38658 9.616178
          CHANNELS 3 Zrotation Xrotation Yrotation
          End Site
          {
            OFFSET 0 20 0
          }
        }
      }
      JOINT right_manubrium
      {
        OFFSET -5.722621 16.35077 3.967754
        CHANNELS 3 Zrotation Xrotation Yrotation
        JOINT right_clavicle
        {
          OFFSET -13.16364 1.694482 -4.693211
          CHANNELS 3 Zrotation Xrotation Yrotation
          JOINT right_humerus
          {
            OFFSET -28.5034 -0.3100689 -2.792744
            CHANNELS 3 Zrotation Xrotation Yrotation
            JOINT right_radius
            {
              OFFSET -25.15693 0.02248979 -1.271978
              CHANNELS 3 Zrotation Xrotation Yrotation
              End Site
              {
                OFFSET -15 0 0
              }
            }
          }
        }
      }
      JOINT left_manubrium
      {
        OFFSET 5.722621 16.35077 3.967754
        CHANNELS 3 Zrotation Xrotation Yrotation
        JOINT left_clavicle
        {
          OFFSET 13.16364 1.694482 -4.693211
          CHANNELS 3 Zrotation Xrotation Yrotation
          JOINT left_humerus
          {
            OFFSET 29.39168 -1.063119 -2.237045
            CHANNELS 3 Zrotation Xrotation Yrotation
            JOINT left_radius
            {
              OFFSET 24.59957 -0.9528479 0.9047498
              CHANNELS 3 Zrotation Xrotation Yrotation
              End Site
              {
                OFFSET 15 -0 -0
              }
            }
          }
        }
      }
    }
  }
}
MOTION
Frames: 9
Frame Time: 0.0416666666667
-1923.067 111.843 538.9237 -0.9604525 11.49002 -171.0006 6.363972 3.413224 -7.858128 -0 9.953194 -0 -9.563802 4.32112 2.705695 1.925009 -7.661159 -2.06788 -0 23.29557 -0 -0.737889 -2.983449 6.79994 4.075111 -6.268333 7.467097 0.0835602 21.31763 -7.746374 0.005013606 20.71247 3.842885 0.9936953 -21.09016 3.549744 -5.659266 -34.93843 15.35876 96.94593 -0.1080968 -19.88246 -0 0 21.4236 -34.43807 17.61912 19.04505 -0.82637 -29.74772 -17.35403 -94.50922 18.50524 38.86267 0 0 -30.56087 -1.526553 18.27711 16.80794
-1924.877 111.8263 532.9882 -0.8873422 11.49582 -171.3675 6.363972 3.413224 -7.858128 -0 9.953194 -0 -9.563802 4.32112 2.705695 1.925009 -7.661159 -2.06788 -0 23.29557 -0 -0.737889 -2.983449 6.79994 4.075111 -6.268333 7.467097 0.0835602 21.31763 -7.746374 0.005013606 20.71247 3.842885 0.9936953 -21.09016 3.549744 -5.659266 -34.93843 15.35876 96.94593 -0.1080968 -19.88246 -0 0 21.4236 -34.43807 17.61912 19.04505 -0.82637 -29.74772 -17.35403 -94.50922 18.50524 38.86267 0 0 -30.56087 -1.526553 18.27711 16.80794
-1926.651 111.8096 527.0416 -0.8141941 11.50116 -171.7345 6.363972 3.413224 -7.858128 -0 9.953194 -0 -9.563802 4.32112 2.705695 1.925009 -7.661159 -2.06788 -0 23.29557 -0 -0.737889 -2.983449 6.79994 4.075111 -6.268333 7.467097 0.0835602 21.31763 -7.746374 0.005013606 20.71247 3.842885 0.9936953 -21.09016 3.549744 -5.659266 -34.93843 15.35876 96.94593 -0.1080968 -19.88246 -0 0 21.4236 -34.43807 17.61912 19.04505 -0.82637 -29.74772 -17.35403 -94.50922 18.50524 38.86267 0 0 -30.56087 -1.526553 18.27711 16.80794
-1928.386 111.7929 521.0839 -0.7410112 11.50604 -172.1015 6.363972 3.413224 -7.858128 -0 9.953194 -0 -9.563802 4.32112 2.705695 1.925009 -7.661159 -2.06788 -0 23.29557 -0 -0.737889 -2.983449 6.79994 4.075111 -6.268333 7.467097 0.0835602 21.31763 -7.746374 0.005013606 20.71247 3.842885 0.9936953 -21.09016 3.549744 -5.659266 -34.93843 15.35876 96.94593 -0.1080968 -19.88246 -0 0 21.4236 -34.43807 17.61912 19.04505 -0.82637 -29.74772 -17.35403 -94.50922 18.50524 38.86267 0 0 -30.56087 -1.526553 18.27711 16.80794
-1930.085 111.7762 515.1154 -0.6677967 11.51046 -172.4684 6.363972 3.413224 -7.858128 -0 9.953194 -0 -9.563802 4.32112 2.705695 1.925009 -7.661159 -2.06788 -0 23.29557 -0 -0.737889 -2.983449 6.79994 4.075111 -6.268333 7.467097 0.0835602 21.31763 -7.746374 0.005013606 20.71247 3.842885 0.9936953 -21.09016 3.549744 -5.659266 -34.93843 15.35876 96.94593 -0.1080968 -19.88246 -0 0 21.4236 -34.43807 17.61912 19.04505 -0.82637 -29.74772 -17.35403 -94.50922 18.50524 38.86267 0 0 -30.56087 -1.526553 18.27711 16.80794
-1931.745 111.7595 509.1364 -0.5945538 11.51443 -172.8354 6.363972 3.413224 -7.858128 -0 9.953194 -0 -9.563802 4.32112 2.705695 1.925009 -7.661159 -2.06788 -0 23.29557 -0 -0.737889 -2.983449 6.79994 4.075111 -6.268333 7.467097 0.0835602 21.31763 -7.746374 0.005013606 20.71247 3.842885 0.9936953 -21.09016 3.549744 -5.659266 -34.93843 15.35876 96.94593 -0.1080968 -19.88246 -0 0 21.4236 -34.43807 17.61912 19.04505 -0.82637 -29.74772 -17.35403 -94.50922 18.50524 38.86267 0 0 -30.56087 -1.526553 18.27711 16.80794
-1933.369 111.7428 503.147 -0.5212855 11.51793 -173.2024 6.363972 3.413224 -7.858128 -0 9.953194 -0 -9.563802 4.32112 2.705695 1.925009 -7.661159 -2.06788 -0 23.29557 -0 -0.737889 -2.983449 6.79994 4.075111 -6.268333 7.467097 0.0835602 21.31763 -7.746374 0.005013606 20.71247 3.842885 0.9936953 -21.09016 3.549744 -5.659266 -34.93843 15.35876 96.94593 -0.1080968 -19.88246 -0 0 21.4236 -34.43807 17.61912 19.04505 -0.82637 -29.74772 -17.35403 -94.50922 18.50524 38.86267 0 0 -30.56087 -1.526553 18.27711 16.80794
-1934.954 111.7261 497.1476 -0.4479949 11.52097 -173.5694 6.363972 3.413224 -7.858128 -0 9.953194 -0 -9.563802 4.32112 2.705695 1.925009 -7.661159 -2.06788 -0 23.29557 -0 -0.737889 -2.983449 6.79994 4.075111 -6.268333 7.467097 0.0835602 21.31763 -7.746374 0.005013606 20.71247 3.842885 0.9936953 -21.09016 3.549744 -5.659266 -34.93843 15.35876 96.94593 -0.1080968 -19.88246 -0 0 21.4236 -34.43807 17.61912 19.04505 -0.82637 -29.74772 -17.35403 -94.50922 18.50524 38.86267 0 0 -30.56087 -1.526553 18.27711 16.80794
-1936.502 111.7094 491.1384 -0.3746852 11.52355 -173.9364 6.363972 3.413224 -7.858128 -0 9.953194 -0 -9.563802 4.32112 2.705695 1.925009 -7.661159 -2.06788 -0 23.29557 -0 -0.737889 -2.983449 6.79994 4.075111 -6.268333 7.467097 0.0835602 21.31763 -7.746374 0.005013606 20.71247 3.842885 0.9936953 -21.09016 3.549744 -5.659266 -34.93843 15.35876 96.94593 -0.1080968 -19.88246 -0 0 21.4236 -34.43807 17.61912 19.04505 -0.82637 -29.74772 -17.35403 -94.50922 18.50524 38.86267 0 0 -30.56087 -1.526553 18.27711 16.80794
